<?xml version="1.0" encoding="UTF-8" standalone="no"?><!DOCTYPE svg PUBLIC "-//W3C//DTD SVG 1.1//EN" "http://www.w3.org/Graphics/SVG/1.1/DTD/svg11.dtd"><svg width="100%" height="100%" viewBox="0 0 208 198" version="1.1" xmlns="http://www.w3.org/2000/svg" xmlns:xlink="http://www.w3.org/1999/xlink" xml:space="preserve" xmlns:serif="http://www.serif.com/" style="fill-rule:evenodd;clip-rule:evenodd;stroke-linejoin:round;stroke-miterlimit:2;"><path d="M195.075,55.503c-0,-23.734 -19.269,-43.003 -43.003,-43.003l-96.569,0c-23.734,0 -43.003,19.269 -43.003,43.003l0,86.006c0,23.734 19.269,43.002 43.003,43.002l96.569,0c23.734,0 43.003,-19.268 43.003,-43.002l-0,-86.006Z" style="fill:#f5f1e8;"/><clipPath id="_clip1"><path d="M195.075,55.503c-0,-23.734 -19.269,-43.003 -43.003,-43.003l-96.569,0c-23.734,0 -43.003,19.269 -43.003,43.003l0,86.006c0,23.734 19.269,43.002 43.003,43.002l96.569,0c23.734,0 43.003,-19.268 43.003,-43.002l-0,-86.006Z"/></clipPath><g clip-path="url(#_clip1)"><path d="M94.695,151.857c0,-23.734 -19.269,-43.003 -43.003,-43.003l-96.569,0c-23.734,0 -43.003,19.269 -43.003,43.003l0,86.006c0,23.734 19.269,43.003 43.003,43.003l96.569,-0c23.734,-0 43.003,-19.269 43.003,-43.003l0,-86.006Z" style="fill:#8b9d7a;"/><path d="M107.195,151.857c0,-30.633 -24.87,-55.503 -55.503,-55.503l-96.569,0c-30.633,0 -55.503,24.87 -55.503,55.503l0,86.006c0,30.633 24.87,55.503 55.503,55.503c0,-0 96.569,-0 96.569,-0c30.633,-0 55.503,-24.87 55.503,-55.503l0,-86.006Zm-12.5,0c0,-23.734 -19.269,-43.003 -43.003,-43.003l-96.569,0c-23.734,0 -43.003,19.269 -43.003,43.003l0,86.006c0,23.734 19.269,43.003 43.003,43.003l96.569,-0c23.734,-0 43.003,-19.269 43.003,-43.003l0,-86.006Z" style="fill:#2d3b2d;"/><path d="M294.695,-39.81c0,-23.734 -19.269,-43.003 -43.003,-43.003l-96.569,0c-23.734,0 -43.003,19.269 -43.003,43.003l0,86.006c0,23.734 19.269,43.003 43.003,43.003l96.569,-0c23.734,-0 43.003,-19.269 43.003,-43.003l0,-86.006Z" style="fill:#8b9d7a;"/><path d="M307.195,-39.81c0,-30.632 -24.87,-55.503 -55.503,-55.503l-96.569,0c-30.633,0 -55.503,24.871 -55.503,55.503c0,0 0,86.006 0,86.006c0,30.633 24.87,55.503 55.503,55.503l96.569,-0c30.633,-0 55.503,-24.87 55.503,-55.503c0,0 0,-86.006 0,-86.006Zm-12.5,0c0,-23.734 -19.269,-43.003 -43.003,-43.003l-96.569,0c-23.734,0 -43.003,19.269 -43.003,43.003l0,86.006c0,23.734 19.269,43.003 43.003,43.003l96.569,-0c23.734,-0 43.003,-19.269 43.003,-43.003l0,-86.006Z" style="fill:#2d3b2d;"/></g><path d="M207.575,55.503c-0,-30.633 -24.87,-55.503 -55.503,-55.503c0,0 -96.569,0 -96.569,0c-30.633,0 -55.503,24.87 -55.503,55.503l0,86.006c0,30.632 24.87,55.502 55.503,55.502c-0,0 96.569,0 96.569,0c30.633,0 55.503,-24.87 55.503,-55.502c-0,-0 -0,-86.006 -0,-86.006Zm-12.5,-0c-0,-23.734 -19.269,-43.003 -43.003,-43.003l-96.569,0c-23.734,0 -43.003,19.269 -43.003,43.003l0,86.006c0,23.734 19.269,43.002 43.003,43.002l96.569,0c23.734,0 43.003,-19.268 43.003,-43.002l-0,-86.006Z" style="fill:#2b3400;"/></svg>