<?xml version="1.0" encoding="UTF-8" standalone="no"?>
<!DOCTYPE svg PUBLIC "-//W3C//DTD SVG 1.1//EN" "http://www.w3.org/Graphics/SVG/1.1/DTD/svg11.dtd">
<svg width="100%" height="100%" viewBox="0 0 835 198" version="1.1" xmlns="http://www.w3.org/2000/svg" xmlns:xlink="http://www.w3.org/1999/xlink" xml:space="preserve" xmlns:serif="http://www.serif.com/" style="fill-rule:evenodd;clip-rule:evenodd;stroke-linejoin:round;stroke-miterlimit:2;">
<g>
<!-- Texte "Kizent" en gris foncé chaud #2D2D2D -->
<path d="M230.032,164.142l-0,-132.4c-0,-2.133 0.633,-3.833 1.9,-5.1c1.266,-1.267 2.966,-1.9 5.1,-1.9l9.4,0c2.133,0 3.833,0.633 5.1,1.9c1.266,1.267 1.9,2.967 1.9,5.1l-0,77.2l14,-4.8c1.733,-0.667 3.333,-1.8 4.8,-3.4c1.466,-1.6 2.733,-4.4 3.8,-8.4l4.8,-18.6c0.533,-2 1.566,-3.567 3.1,-4.7c1.533,-1.133 3.3,-1.7 5.3,-1.7l8.8,0c2.266,0 3.866,0.733 4.8,2.2c0.933,1.467 1.133,3.333 0.6,5.6l-6,22.2c-1.467,5.867 -3.234,10.533 -5.3,14c-2.067,3.467 -4.967,6.133 -8.7,8l22.4,43c1.2,2.4 1.333,4.467 0.4,6.2c-0.934,1.733 -2.734,2.6 -5.4,2.6l-9.2,0c-2.134,0 -4.134,-0.633 -6,-1.9c-1.867,-1.267 -3.267,-2.833 -4.2,-4.7l-18.4,-37.4l-9.6,3.6l-0,33.4c-0,2.133 -0.634,3.833 -1.9,5.1c-1.267,1.267 -2.967,1.9 -5.1,1.9l-9.4,0c-2.134,0 -3.834,-0.633 -5.1,-1.9c-1.267,-1.267 -1.9,-2.967 -1.9,-5.1Z" style="fill:#2D2D2D;fill-rule:nonzero;"/>
<path d="M339.632,51.742c-3.734,0 -7,-1.367 -9.8,-4.1c-2.8,-2.733 -4.2,-5.9 -4.2,-9.5c-0,-3.733 1.4,-6.9 4.2,-9.5c2.8,-2.6 6.066,-3.9 9.8,-3.9c3.733,0 7,1.3 9.8,3.9c2.8,2.6 4.2,5.767 4.2,9.5c-0,3.6 -1.4,6.767 -4.2,9.5c-2.8,2.733 -6.067,4.1 -9.8,4.1Zm-11.6,112.4l-0,-89.8c-0,-2.133 0.633,-3.833 1.9,-5.1c1.266,-1.267 2.966,-1.9 5.1,-1.9l9.4,0c2.133,0 3.833,0.633 5.1,1.9c1.266,1.267 1.9,2.967 1.9,5.1l-0,89.8c-0,2.133 -0.634,3.833 -1.9,5.1c-1.267,1.267 -2.967,1.9 -5.1,1.9l-9.4,0c-2.134,0 -3.834,-0.633 -5.1,-1.9c-1.267,-1.267 -1.9,-2.967 -1.9,-5.1Z" style="fill:#2D2D2D;fill-rule:nonzero;"/>
<path d="M376.032,164.142l-0,-5.4c-0,-2.8 1.266,-6.133 3.8,-10l42,-61.8l-37.2,0c-2.134,0 -3.834,-0.633 -5.1,-1.9c-1.267,-1.267 -1.9,-2.967 -1.9,-5.1l-0,-5.6c-0,-2.133 0.633,-3.833 1.9,-5.1c1.266,-1.267 2.966,-1.9 5.1,-1.9l58,0c2.133,0 3.833,0.633 5.1,1.9c1.266,1.267 1.9,2.967 1.9,5.1l-0,5.4c-0,3.067 -1.2,6.333 -3.6,9.8l-40.8,62l40,0c4.666,0 6.733,2.4 6.2,7.2l-0.6,5.2c-0.4,4.8 -2.934,7.2 -7.6,7.2l-60.2,0c-2.134,0 -3.834,-0.633 -5.1,-1.9c-1.267,-1.267 -1.9,-2.967 -1.9,-5.1Z" style="fill:#2D2D2D;fill-rule:nonzero;"/>
<path d="M471.632,129.742l-0,-22c-0,-5.067 0.7,-10.133 2.1,-15.2c1.4,-5.067 3.8,-9.667 7.2,-13.8c3.4,-4.133 7.766,-7.5 13.1,-10.1c5.333,-2.6 11.533,-3.9 18.6,-3.9c4.133,0 8.5,0.633 13.1,1.9c4.6,1.267 9.233,3.667 13.9,7.2c4.666,3.533 8.2,8.033 10.6,13.5c2.4,5.467 3.6,11 3.6,16.6l-0,15c-0,2.133 -0.634,3.833 -1.9,5.1c-1.267,1.267 -2.967,1.9 -5.1,1.9l-52,0l-0,3.8c-0,7.867 1.866,13.8 5.6,17.8c3.733,4 8.933,6 15.6,6c6.666,0 13.8,-1 21.4,-3c2.133,-0.533 3.933,-0.4 5.4,0.4c1.466,0.8 2.466,2.2 3,4.2l1.4,6c0.533,2.133 0.333,4.033 -0.6,5.7c-0.934,1.667 -2.4,2.767 -4.4,3.3c-8.534,2.4 -17.267,3.6 -26.2,3.6c-13.467,0 -24.234,-3.833 -32.3,-11.5c-8.067,-7.667 -12.1,-18.5 -12.1,-32.5Zm23.2,-21l35.6,0l-0,-4.8c-0,-5.467 -1.667,-10 -5,-13.6c-3.334,-3.6 -7.6,-5.4 -12.8,-5.4c-5.2,0 -9.467,1.867 -12.8,5.6c-3.334,3.733 -5,8.667 -5,14.8l-0,3.4Z" style="fill:#2D2D2D;fill-rule:nonzero;"/>
<path d="M577.032,164.142l-0,-56.6c-0,-6.667 0.933,-12.4 2.8,-17.2c1.866,-4.8 4.3,-8.967 7.3,-12.5c3,-3.533 7.166,-6.6 12.5,-9.2c5.333,-2.6 11.6,-3.9 18.8,-3.9c5.6,0 10.9,0.933 15.9,2.8c5,1.867 9.366,4.6 13.1,8.2c3.733,3.6 6.666,8.133 8.8,13.6c2.133,5.467 3.2,11.533 3.2,18.2l-0,56.6c-0,2.133 -0.634,3.833 -1.9,5.1c-1.267,1.267 -2.967,1.9 -5.1,1.9l-9.4,0c-2.134,0 -3.834,-0.633 -5.1,-1.9c-1.267,-1.267 -1.9,-2.967 -1.9,-5.1l-0,-55.6c-0,-7.467 -1.6,-13.267 -4.8,-17.4c-3.2,-4.133 -7.467,-6.2 -12.8,-6.2c-5.467,0 -9.867,2.067 -13.2,6.2c-3.334,4.133 -5,9.933 -5,17.4l-0,55.6c-0,2.133 -0.634,3.833 -1.9,5.1c-1.267,1.267 -2.967,1.9 -5.1,1.9l-9.2,0c-2.134,0 -3.834,-0.633 -5.1,-1.9c-1.267,-1.267 -1.9,-2.967 -1.9,-5.1Z" style="fill:#2D2D2D;fill-rule:nonzero;"/>
<path d="M692.232,164.142l-0,-80.6l-7.8,0c-3.334,0 -5.467,-1.733 -6.4,-5.2l-1.4,-5.2c-0.534,-1.6 -0.367,-2.967 0.5,-4.1c0.866,-1.133 2.1,-1.7 3.7,-1.7l11.4,0l-0,-21.8c-0,-2.133 0.6,-3.933 1.8,-5.4c1.2,-1.467 2.933,-2.333 5.2,-2.6l8.2,-1.4c2.4,-0.4 4.4,-0.067 6,1c1.6,1.067 2.4,2.667 2.4,4.8l-0,25.4l12.8,0c1.6,0 2.933,0.533 4,1.6c1.066,1.067 1.6,2.4 1.6,4l-0,5c-0,1.6 -0.534,2.933 -1.6,4c-1.067,1.067 -2.4,1.6 -4,1.6l-12.8,0l-0,80.6c-0,2.133 -0.634,3.833 -1.9,5.1c-1.267,1.267 -2.967,1.9 -5.1,1.9l-9.6,0c-2.134,0 -3.834,-0.633 -5.1,-1.9c-1.267,-1.267 -1.9,-2.967 -1.9,-5.1Z" style="fill:#2D2D2D;fill-rule:nonzero;"/>
<!-- Lettre "o" en matcha green #8B9D7A -->
<path d="M748.432,128.142l-0,-18c-0,-8.933 1.8,-17 5.4,-24.2c3.6,-7.2 8.833,-12.533 15.7,-16c6.866,-3.467 14.166,-5.2 21.9,-5.2c6.133,0 11.866,1 17.2,3c5.333,2 9.933,4.933 13.8,8.8c3.866,3.867 6.866,8.667 9,14.4c2.133,5.733 3.2,12.2 3.2,19.4l-0,17.8c-0,5.333 -0.7,10.667 -2.1,16c-1.4,5.333 -3.834,10.2 -7.3,14.6c-3.467,4.4 -8.034,8 -13.7,10.8c-5.667,2.8 -12.367,4.2 -20.1,4.2c-6.134,0 -11.834,-1 -17.1,-3c-5.267,-2 -9.834,-4.967 -13.7,-8.9c-3.867,-3.933 -6.867,-8.767 -9,-14.5c-2.134,-5.733 -3.2,-12.133 -3.2,-19.2Zm23.2,-1c-0,8.667 1.7,15.233 5.1,19.7c3.4,4.467 8.3,6.7 14.7,6.7c6.533,0 11.5,-2.233 14.9,-6.7c3.4,-4.467 5.1,-11.033 5.1,-19.7l-0,-15.8c-0,-8.667 -1.7,-15.233 -5.1,-19.7c-3.4,-4.467 -8.367,-6.7 -14.9,-6.7c-6.4,0 -11.3,2.233 -14.7,6.7c-3.4,4.467 -5.1,11.033 -5.1,19.7l-0,15.8Z" style="fill:#8B9D7A;fill-rule:nonzero;"/>
</g>
<!-- Pictogramme avec beige conservé et accents matcha -->
<path d="M195.075,55.503c-0,-23.734 -19.269,-43.003 -43.003,-43.003l-96.569,0c-23.734,0 -43.003,19.269 -43.003,43.003l0,86.006c0,23.734 19.269,43.002 43.003,43.002l96.569,0c23.734,0 43.003,-19.268 43.003,-43.002l-0,-86.006Z" style="fill:#f1e3c9;"/>
<clipPath id="_clip1"><path d="M195.075,55.503c-0,-23.734 -19.269,-43.003 -43.003,-43.003l-96.569,0c-23.734,0 -43.003,19.269 -43.003,43.003l0,86.006c0,23.734 19.269,43.002 43.003,43.002l96.569,0c23.734,0 43.003,-19.268 43.003,-43.002l-0,-86.006Z"/></clipPath>
<g clip-path="url(#_clip1)">
<!-- Carrés intérieurs en matcha green #8B9D7A au lieu de teal -->
<path d="M94.695,151.857c0,-23.734 -19.269,-43.003 -43.003,-43.003l-96.569,0c-23.734,0 -43.003,19.269 -43.003,43.003l0,86.006c0,23.734 19.269,43.003 43.003,43.003l96.569,-0c23.734,-0 43.003,-19.269 43.003,-43.003l0,-86.006Z" style="fill:#8B9D7A;"/>
<path d="M107.195,151.857c0,-30.633 -24.87,-55.503 -55.503,-55.503c0,0 -96.569,0 -96.569,0c-30.633,0 -55.503,24.87 -55.503,55.503c0,0 0,86.006 0,86.006c0,30.633 24.87,55.503 55.503,55.503l96.569,-0c30.633,-0 55.503,-24.87 55.503,-55.503c0,-0 0,-86.006 0,-86.006Zm-12.5,0c0,-23.734 -19.269,-43.003 -43.003,-43.003l-96.569,0c-23.734,0 -43.003,19.269 -43.003,43.003l0,86.006c0,23.734 19.269,43.003 43.003,43.003l96.569,-0c23.734,-0 43.003,-19.269 43.003,-43.003l0,-86.006Z" style="fill:#2D2D2D;"/>
<path d="M294.695,-39.81c0,-23.734 -19.269,-43.003 -43.003,-43.003l-96.569,0c-23.734,0 -43.003,19.269 -43.003,43.003l0,86.006c0,23.734 19.269,43.003 43.003,43.003l96.569,-0c23.734,-0 43.003,-19.269 43.003,-43.003l0,-86.006Z" style="fill:#8B9D7A;"/>
<path d="M307.195,-39.81c0,-30.632 -24.87,-55.503 -55.503,-55.503c0,0 -96.569,0 -96.569,0c-30.633,0 -55.503,24.871 -55.503,55.503c0,0 0,86.006 0,86.006c0,30.633 24.87,55.503 55.503,55.503l96.569,-0c30.633,-0 55.503,-24.87 55.503,-55.503l0,-86.006Zm-12.5,0c0,-23.734 -19.269,-43.003 -43.003,-43.003l-96.569,0c-23.734,0 -43.003,19.269 -43.003,43.003l0,86.006c0,23.734 19.269,43.003 43.003,43.003l96.569,-0c23.734,-0 43.003,-19.269 43.003,-43.003l0,-86.006Z" style="fill:#2D2D2D;"/>
</g>
<path d="M207.575,55.503c-0,-30.633 -24.87,-55.503 -55.503,-55.503c0,0 -96.569,0 -96.569,0c-30.633,0 -55.503,24.87 -55.503,55.503c0,-0 0,86.006 0,86.006c0,30.632 24.87,55.502 55.503,55.502l96.569,0c30.633,0 55.503,-24.87 55.503,-55.502c-0,-0 -0,-86.006 -0,-86.006Zm-12.5,-0c-0,-23.734 -19.269,-43.003 -43.003,-43.003l-96.569,0c-23.734,0 -43.003,19.269 -43.003,43.003l0,86.006c0,23.734 19.269,43.002 43.003,43.002l96.569,0c23.734,0 43.003,-19.268 43.003,-43.002l-0,-86.006Z" style="fill:#2D2D2D;"/>
</svg>
